<svg xmlns="http://www.w3.org/2000/svg" viewBox="0 0 32 32">
  <defs>
    <linearGradient id="bg" x1="0" y1="0" x2="1" y2="1">
      <stop offset="0%" stop-color="#1a1a2e"/>
      <stop offset="50%" stop-color="#16213e"/>
      <stop offset="100%" stop-color="#0f3460"/>
    </linearGradient>
  </defs>
  <rect width="32" height="32" rx="7" fill="url(#bg)"/>
  <svg x="4.5" y="5.6" width="23" height="20.8" viewBox="154.5 57.0 205.5 186.5">
    <g transform="translate(0,300) scale(0.1,-0.1)" fill="#ffffff" stroke="none">
      <path d="M2470 2383 c-59 -21 -142 -104 -158 -159 -22 -75 -15 -152 19 -222 36 -75 34 -90 -25 -187 -45 -72 -45 -73 -141 -95 -88 -20 -158 -93 -171 -178 -5 -36 -2 -61 14 -107 12 -33 22 -68 22 -78 0 -24 -99 -196 -119 -206 -9 -5 -45 -11 -79 -15 -110 -10 -187 -59 -233 -147 -35 -65 -33 -175 3 -244 30 -58 57 -85 114 -114 60 -31 129 -37 200 -16 59 17 92 45 175 144 27 31 27 31 124 31 l98 0 59 -64 c84 -91 152 -114 249 -84 46 13 106 68 125 114 20 49 18 138 -5 183 -72 141 -242 160 -356 40 -55 -58 -71 -63 -176 -57 -59 4 -84 9 -100 24 -32 29 -71 113 -65 139 8 30 92 179 110 194 8 6 39 16 69 21 66 10 102 28 139 67 60 62 75 163 37 247 -23 54 -22 62 33 157 44 76 75 99 135 99 59 0 83 -19 135 -105 52 -86 59 -125 33 -174 -22 -44 -28 -102 -15 -150 23 -85 123 -161 212 -161 47 0 62 -14 116 -108 57 -99 64 -135 33 -186 -62 -101 -39 -249 51 -333 65 -61 197 -83 283 -48 50 21 110 77 138 130 16 31 22 58 22 115 0 65 -4 82 -29 128 -50 90 -140 142 -244 142 -26 0 -57 7 -68 14 -29 21 -124 188 -124 219 0 13 7 41 15 60 21 51 19 130 -4 176 -36 70 -96 109 -192 125 -20 4 -45 16 -57 29 -31 33 -102 163 -102 187 0 11 12 44 27 73 23 43 28 65 28 127 0 65 -4 82 -30 129 -36 66 -85 107 -149 126 -62 19 -118 18 -176 -2z"/>
    </g>
  </svg>
</svg>
